# 3ds Max Wavefront OBJ Exporter v0.97b - (c)2007 guruware
# File Created: 15.08.2020 21:09:50

mtllib Ïà¿ò2.mtl

#
# object µØ°å003
#

v  3.4125 3.6269 0.2926
v  -3.4125 3.6269 0.2926
v  -3.4125 -3.1982 0.2926
v  3.4125 -3.1982 0.2926
v  -4.2076 -3.9932 -0.4401
v  -4.2076 4.4219 -0.4401
v  4.2076 4.4219 -0.4401
v  4.2076 -3.9932 -0.4401
v  4.2076 -3.9932 0.7793
v  -4.2076 -3.9932 0.7793
v  4.2076 4.4219 0.7793
v  -4.2076 4.4219 0.7793
# 12 vertices

vn -0.0000 0.0000 1.0000
vn 0.0000 0.0000 1.0000
vn 0.0000 0.0000 -1.0000
vn 0.0000 -1.0000 0.0000
vn 0.0000 -1.0000 -0.0000
vn 1.0000 0.0000 -0.0000
vn -0.0000 1.0000 -0.0000
vn -1.0000 -0.0000 0.0000
vn -1.0000 -0.0000 -0.0000
vn -0.0000 0.5221 0.8529
vn -0.5221 -0.0000 0.8529
vn -0.0000 -0.5221 0.8529
vn 0.5221 0.0000 0.8529
# 13 vertex normals

vt 0.0272 0.8628 0.0000
vt 0.9683 0.8628 0.0000
vt 0.9683 0.0139 0.0000
vt 0.0272 0.0139 0.0000
vt 0.6323 0.0918 0.0000
vt 0.6323 0.2632 0.0000
vt 0.3939 0.2632 0.0000
vt 0.3939 0.0918 0.0000
vt 0.0192 0.8817 0.0000
vt 0.9795 0.8817 0.0000
vt 0.9795 0.9819 0.0000
vt 0.0192 0.9819 0.0000
# 12 texture coords

g µØ°å003
usemtl Material__65
s 2
f 1/1/1 2/2/2 3/3/1 4/4/1 
f 5/5/3 6/6/3 7/7/3 8/8/3 
s 1
f 5/9/4 8/10/5 9/10/4 10/9/4 
s 4
f 8/10/6 7/9/6 11/9/6 9/10/6 
s 1
f 7/10/7 6/9/7 12/9/7 11/10/7 
s 4
f 6/10/8 5/9/8 10/9/8 12/10/9 
s off
f 10/9/10 9/10/10 4/11/10 3/12/10 
f 9/10/11 11/9/11 1/12/11 4/11/11 
f 11/10/12 12/9/12 2/12/12 1/11/12 
f 12/10/13 10/9/13 3/12/13 2/11/13 
# 10 polygons

