# 3ds Max Wavefront OBJ Exporter v0.97b - (c)2007 guruware
# File Created: 15.08.2020 21:10:54

mtllib Ïà¿ò3.mtl

#
# object µØ°å007
#

v  6.5764 7.0681 0.3042
v  -6.5764 7.0681 0.3042
v  -6.5764 -7.0681 0.3042
v  6.5764 -7.0681 0.3042
v  -8.0462 -8.6076 -0.5006
v  -8.0462 8.6076 -0.5006
v  8.0462 8.6076 -0.5006
v  8.0462 -8.6076 -0.5006
v  8.0462 -8.6076 0.5006
v  -8.0462 -8.6076 0.5006
v  8.0462 8.6076 0.5006
v  -8.0462 8.6076 0.5006
# 12 vertices

vn 0.0000 -0.0000 1.0000
vn 0.0000 0.0000 -1.0000
vn 0.0000 -1.0000 0.0000
vn 0.0000 -1.0000 -0.0000
vn -0.0000 -1.0000 0.0000
vn 1.0000 0.0000 -0.0000
vn 0.0000 1.0000 -0.0000
vn -1.0000 0.0000 -0.0000
vn -0.0000 0.1265 0.9920
vn -0.1324 -0.0000 0.9912
vn -0.0000 -0.1265 0.9920
vn 0.1324 -0.0000 0.9912
# 12 vertex normals

vt 0.0272 0.8628 0.0000
vt 0.9683 0.8628 0.0000
vt 0.9683 0.0139 0.0000
vt 0.0272 0.0139 0.0000
vt 0.6323 0.0918 0.0000
vt 0.6323 0.2632 0.0000
vt 0.3939 0.2632 0.0000
vt 0.3939 0.0918 0.0000
vt 0.0405 0.9020 0.0000
vt 0.9125 0.9020 0.0000
vt 0.9125 0.9734 0.0000
vt 0.0405 0.9734 0.0000
vt 0.0192 0.8817 0.0000
vt 0.9795 0.8817 0.0000
vt 0.9795 0.9819 0.0000
vt 0.0192 0.9819 0.0000
# 16 texture coords

g µØ°å007
usemtl Material__67
s 2
f 1/1/1 2/2/1 3/3/1 4/4/1 
f 5/5/2 6/6/2 7/7/2 8/8/2 
s 1
f 5/9/3 8/10/4 9/11/3 10/12/5 
s 4
f 8/11/6 7/12/6 11/9/6 9/10/6 
s 1
f 7/11/7 6/12/7 12/9/7 11/10/7 
s 4
f 6/11/8 5/12/8 10/9/8 12/10/8 
s off
f 10/13/9 9/14/9 4/15/9 3/16/9 
f 9/14/10 11/13/10 1/16/10 4/15/10 
f 11/14/11 12/13/11 2/16/11 1/15/11 
f 12/14/12 10/13/12 3/16/12 2/15/12 
# 10 polygons

