# 3ds Max Wavefront OBJ Exporter v0.97b - (c)2007 guruware
# File Created: 15.08.2020 21:12:39

mtllib Ïà¿ò6.mtl

#
# object µØ°å010
#

v  -0.3893 -5.2641 0.3042
v  0.0559 -2.7351 0.3073
v  -4.8690 -2.7347 0.3042
v  -4.8690 -5.3263 0.3042
v  -0.5209 -6.3853 0.5006
v  -0.5209 -6.3853 -0.5006
v  5.3393 -7.0733 -0.5006
v  5.3393 -7.0733 0.5006
v  6.6273 3.8977 0.5006
v  6.6273 3.8977 -0.5006
v  6.8113 5.4649 -0.5006
v  6.8113 5.4649 0.5006
v  -0.0463 6.1691 0.5006
v  -0.0463 6.1691 -0.5006
v  -5.9468 6.1691 -0.5006
v  -5.9468 6.1691 0.5006
v  -5.9468 -3.2992 0.5006
v  -5.9468 -3.2992 -0.5006
v  -5.9468 -6.4553 -0.5006
v  -5.9468 -6.4553 0.5006
v  5.7073 -3.9387 0.5006
v  4.7027 -3.2525 0.3042
v  4.4005 -5.8264 0.3042
v  1.5388 6.0839 0.5006
v  1.5665 4.9440 0.3042
v  5.6092 4.4694 0.3042
v  -5.9468 4.5911 0.5006
v  -4.8690 3.7444 0.3042
v  -4.8690 5.0402 0.3042
v  0.3698 -2.7438 0.3042
v  0.0444 -3.3157 -0.5006
v  -0.3761 -5.1514 -0.5006
v  1.5435 6.0834 -0.5006
v  0.0385 5.0511 0.4024
v  -0.2120 1.1478 0.3165
v  -4.8690 1.1527 0.3042
v  -4.8690 -0.1431 0.3042
v  -0.4352 -0.1337 0.3103
v  5.7073 -3.9387 -0.5006
v  6.0753 -0.8042 -0.5006
v  6.0753 -0.8042 0.5006
v  -5.9468 1.4350 0.5006
v  -5.9468 1.4350 -0.5006
v  -5.9468 -0.1431 -0.5006
v  -5.9468 -0.1431 0.5006
v  6.2593 0.7631 0.5006
v  5.1560 0.6085 0.3042
v  5.0049 -0.6785 0.3042
v  0.9378 1.1037 0.3042
v  0.4745 -0.1466 0.3042
v  -0.0396 1.4343 -0.5006
v  -0.4377 -0.1359 -0.5006
v  6.2593 0.7631 -0.5006
v  6.4434 2.3304 -0.5006
v  6.4434 2.3304 0.5006
v  -4.8690 2.4485 0.3042
v  -5.9468 3.0130 0.5006
v  -0.7200 3.7447 0.3533
v  0.0667 2.4583 0.3288
v  -5.9468 4.5911 -0.5006
v  -5.9468 3.0130 -0.5006
v  5.4581 3.1824 0.3042
v  5.3070 1.8954 0.3042
v  1.2151 3.6805 0.3042
v  1.5476 2.3368 0.3042
v  -0.0463 4.5709 -0.5006
v  -0.5094 3.0203 -0.5006
v  1.2782 4.5256 -0.5006
v  1.5511 2.9047 -0.5006
v  1.1280 1.3655 -0.5006
v  0.3463 -0.1316 -0.5006
v  0.4350 -3.3198 -0.5006
v  -0.4377 -1.0958 -0.5006
# 73 vertices

vn -0.0002 -0.0004 1.0000
vn -0.0006 -0.0012 1.0000
vn -0.0007 -0.0004 1.0000
vn 0.0000 -0.0000 1.0000
vn -0.0520 -0.9986 -0.0000
vn -0.0520 -0.9986 0.0000
vn -0.1166 -0.9932 -0.0000
vn 0.9932 -0.1166 -0.0000
vn 0.0000 1.0000 -0.0000
vn -1.0000 0.0000 -0.0000
vn -0.0023 0.1731 0.9849
vn -0.1780 0.0209 0.9838
vn -0.0200 -0.1702 0.9852
vn 0.1792 -0.0000 0.9838
vn -0.0000 -0.0000 1.0000
vn 0.0000 0.0000 -1.0000
vn -0.0000 0.0000 -1.0000
vn -0.0000 -0.0000 -1.0000
vn 0.0129 -0.9999 0.0000
vn 0.1166 0.9932 0.0000
vn 0.1166 0.9932 -0.0000
vn 0.0200 0.1702 0.9852
vn -0.0089 -0.1345 0.9909
vn -0.0022 -0.0065 1.0000
vn -0.0036 -0.0007 1.0000
vn -0.0019 -0.0004 1.0000
vn -0.0011 -0.0027 1.0000
vn -0.0089 -0.0248 0.9997
vn -0.0152 -0.0025 0.9999
vn -0.0077 -0.0021 1.0000
vn -0.0039 -0.0136 0.9999
vn 0.0000 0.0000 1.0000
vn -0.0138 -0.0231 0.9996
vn -0.0200 -0.0000 0.9998
vn -0.0000 0.0000 1.0000
vn 0.0000 -0.0000 -1.0000
vn 0.9981 0.0331 -0.0528
vn 0.8641 -0.2581 0.4321
vn 0.8666 0.2567 -0.4280
vn 0.9626 -0.2441 0.1175
vn 1.0000 0.0000 -0.0031
vn 0.9617 0.1942 -0.1934
vn 0.9852 -0.1716 -0.0026
vn 0.9693 -0.2074 0.1318
vn 0.8285 0.5110 -0.2292
vn 0.8467 -0.4986 0.1857
vn 0.9793 -0.1943 0.0574
vn -0.9875 0.0770 0.1372
vn -0.9436 0.2624 0.2016
vn -0.9564 -0.2366 -0.1711
vn -0.8943 0.4423 -0.0675
vn -0.9265 0.3433 0.1540
vn -0.9311 0.3359 -0.1421
vn -0.9563 -0.1610 -0.2440
vn -0.8849 0.4620 -0.0589
vn -0.9977 -0.0278 -0.0610
vn -0.9867 0.0398 0.1579
vn -0.9485 0.2607 0.1799
# 58 vertex normals

vt 0.4985 0.0201 0.0000
vt 0.5214 0.2255 0.0000
vt 0.0802 0.2255 0.0000
vt 0.0802 0.0201 0.0000
vt 0.2555 0.0920 0.0000
vt 0.2555 0.0206 0.0000
vt 0.4624 0.0206 0.0000
vt 0.4624 0.0920 0.0000
vt 0.1003 0.0206 0.0000
vt 0.1003 0.0920 0.0000
vt 0.0486 0.0920 0.0000
vt 0.0486 0.0206 0.0000
vt 0.1520 0.0206 0.0000
vt 0.1520 0.0920 0.0000
vt 0.4993 0.8817 0.0000
vt 0.4993 0.9819 0.0000
vt 0.0192 0.9819 0.0000
vt 0.0192 0.8817 0.0000
vt 0.7394 0.8817 0.0000
vt 0.7394 0.9819 0.0000
vt 0.9795 0.9819 0.0000
vt 0.9795 0.8817 0.0000
vt 0.5502 0.8817 0.0000
vt 0.5556 0.9819 0.0000
vt 0.8594 0.8817 0.0000
vt 0.8594 0.9819 0.0000
vt 0.9168 0.0201 0.0000
vt 0.9168 0.2255 0.0000
vt 0.3301 0.0236 0.0000
vt 0.3301 0.0403 0.0000
vt 0.2835 0.0403 0.0000
vt 0.2835 0.0302 0.0000
vt 0.2835 0.0236 0.0000
vt 0.2776 0.0920 0.0000
vt 0.2774 0.0206 0.0000
vt 0.5182 0.5393 0.0000
vt 0.0802 0.5393 0.0000
vt 0.0802 0.4435 0.0000
vt 0.4875 0.4435 0.0000
vt 0.3589 0.0206 0.0000
vt 0.3589 0.0920 0.0000
vt 0.3072 0.0206 0.0000
vt 0.3072 0.0920 0.0000
vt 0.3793 0.8817 0.0000
vt 0.3793 0.9819 0.0000
vt 0.2592 0.8817 0.0000
vt 0.2592 0.9819 0.0000
vt 0.9168 0.4435 0.0000
vt 0.9168 0.5393 0.0000
vt 0.3301 0.0654 0.0000
vt 0.2835 0.0654 0.0000
vt 0.2835 0.0571 0.0000
vt 0.3301 0.0571 0.0000
vt 0.2038 0.0206 0.0000
vt 0.2038 0.0920 0.0000
vt 0.6194 0.8817 0.0000
vt 0.6194 0.9819 0.0000
vt 0.4871 0.7490 0.0000
vt 0.0802 0.7490 0.0000
vt 0.0802 0.6483 0.0000
vt 0.5468 0.6483 0.0000
vt 0.4107 0.0206 0.0000
vt 0.4107 0.0920 0.0000
vt 0.1392 0.8817 0.0000
vt 0.1392 0.9819 0.0000
vt 0.9168 0.6483 0.0000
vt 0.9168 0.7490 0.0000
vt 0.3301 0.0822 0.0000
vt 0.2835 0.0822 0.0000
vt 0.2835 0.0738 0.0000
vt 0.3301 0.0738 0.0000
vt 0.4918 0.8651 0.0000
vt 0.0802 0.8651 0.0000
vt 0.9168 0.8651 0.0000
vt 0.3301 0.0906 0.0000
vt 0.2835 0.0906 0.0000
vt 0.2785 0.0906 0.0000
vt 0.2370 0.0906 0.0000
vt 0.2370 0.0822 0.0000
vt 0.2814 0.0822 0.0000
vt 0.2370 0.0738 0.0000
vt 0.2778 0.0738 0.0000
vt 0.2370 0.0654 0.0000
vt 0.2795 0.0654 0.0000
vt 0.2370 0.0571 0.0000
vt 0.2778 0.0571 0.0000
vt 0.2370 0.0403 0.0000
vt 0.2814 0.0403 0.0000
vt 0.2370 0.0236 0.0000
vt 0.1858 0.0226 0.0000
vt 0.1858 0.0640 0.0000
vt 0.2234 0.0600 0.0000
vt 0.2395 0.0226 0.0000
vt 0.2673 0.0579 0.0000
vt 0.2917 0.0226 0.0000
vt 0.3106 0.0569 0.0000
vt 0.3450 0.0226 0.0000
vt 0.3547 0.0564 0.0000
vt 0.3978 0.0226 0.0000
vt 0.3977 0.0562 0.0000
vt 0.4301 0.0226 0.0000
vt 0.4852 0.0560 0.0000
vt 0.5047 0.0226 0.0000
vt 0.5703 0.0559 0.0000
vt 0.5665 0.0226 0.0000
vt 0.1841 0.0674 0.0000
vt 0.1841 0.0260 0.0000
vt 0.2365 0.0260 0.0000
vt 0.2224 0.0593 0.0000
vt 0.2649 0.0593 0.0000
vt 0.2910 0.0260 0.0000
vt 0.3101 0.0593 0.0000
vt 0.3427 0.0260 0.0000
vt 0.3515 0.0593 0.0000
vt 0.3931 0.0260 0.0000
vt 0.3936 0.0593 0.0000
vt 0.4809 0.0593 0.0000
vt 0.5003 0.0260 0.0000
vt 0.5619 0.0260 0.0000
vt 0.5656 0.0593 0.0000
# 120 texture coords

g µØ°å010
usemtl Material__70
s 2
f 1/1/1 2/2/2 3/3/3 4/4/4 
s 1
f 5/5/5 6/6/6 7/7/7 8/8/7 
s 4
f 9/9/8 10/10/8 11/11/8 12/12/8 
s 1
f 13/6/9 14/5/9 15/11/9 16/12/9 
s 4
f 17/13/10 18/14/10 19/11/10 20/12/10 
s off
f 5/15/11 1/16/11 4/17/11 20/18/11 
f 21/19/12 22/20/12 23/21/12 8/22/12 
f 24/23/13 25/24/13 26/21/13 12/22/13 
f 27/25/14 28/26/14 29/21/14 16/22/14 
s 2
f 23/27/15 22/28/15 30/2/15 1/1/1 
f 19/29/16 18/30/16 31/31/17 32/32/17 
f 6/33/18 19/29/16 32/32/17 
s 1
f 20/11/19 19/12/19 6/6/6 5/5/5 
f 12/7/20 11/8/21 33/34/20 24/35/20 
s off
f 5/15/22 8/22/22 23/21/22 1/16/22 
f 13/15/23 16/18/23 29/17/23 34/16/23 
s 2
f 35/36/24 36/37/25 37/38/26 38/39/27 
s 4
f 21/40/8 39/41/8 40/5/8 41/6/8 
f 42/42/10 43/43/10 44/5/10 45/6/10 
s off
f 41/15/12 46/44/12 47/45/12 48/16/12 
f 45/15/14 17/46/14 3/47/14 37/16/14 
s 2
f 48/48/4 47/49/4 49/36/15 50/39/15 
f 43/50/16 51/51/16 52/52/16 44/53/16 
s 4
f 46/54/8 53/55/8 54/14/8 55/13/8 
s off
f 42/56/14 36/57/14 56/20/14 57/19/14 
s 2
f 58/58/28 28/59/29 56/60/30 59/61/31 
s 4
f 27/62/10 60/63/10 61/41/10 57/40/10 
s off
f 55/46/12 9/64/12 62/65/12 63/47/12 
s 2
f 63/66/32 62/67/15 64/58/32 65/61/32 
f 60/68/16 66/69/16 67/70/16 61/71/16 
f 38/39/27 37/38/26 3/3/3 2/2/2 
s 4
f 45/6/10 44/5/10 18/14/10 17/13/10 
s off
f 41/15/12 48/16/12 22/20/12 21/19/12 
s 2
f 22/28/15 48/48/4 50/39/15 30/2/15 
f 44/53/16 52/52/16 31/31/17 18/30/16 
s 4
f 8/7/8 7/8/8 39/41/8 21/40/8 
s off
f 17/46/14 20/18/14 4/17/14 3/47/14 
s 4
f 55/13/8 54/14/8 10/10/8 9/9/8 
s off
f 57/19/14 56/20/14 28/26/14 27/25/14 
s 2
f 34/72/33 29/73/34 28/59/29 58/58/28 
s 4
f 16/7/10 15/8/10 60/63/10 27/62/10 
s off
f 9/64/12 12/18/12 26/17/12 62/65/12 
s 2
f 62/67/15 26/74/15 25/72/35 64/58/32 
f 15/75/16 14/76/16 66/69/16 60/68/16 
f 59/61/31 56/60/30 36/37/25 35/36/24 
s 4
f 57/40/10 61/41/10 43/43/10 42/42/10 
s off
f 46/44/12 55/46/12 63/47/12 47/45/12 
s 2
f 47/49/4 63/66/32 65/61/32 49/36/15 
f 61/71/16 67/70/16 51/51/16 43/50/16 
s 4
f 41/6/8 40/5/8 53/55/8 46/54/8 
s off
f 45/15/14 37/16/14 36/57/14 42/56/14 
s 2
f 33/77/16 11/78/16 10/79/16 68/80/16 
f 10/79/16 54/81/36 69/82/36 68/80/16 
f 69/82/36 54/81/36 53/83/36 70/84/18 
f 53/83/36 40/85/16 71/86/16 70/84/18 
f 71/86/16 40/85/16 39/87/16 72/88/16 
f 7/89/16 6/33/18 32/32/17 39/87/16 
f 72/88/16 39/87/16 32/32/17 
s off
f 14/90/37 13/91/37 34/92/37 66/93/37 
f 66/93/38 58/94/38 67/95/38 
f 67/95/39 59/96/39 51/97/39 
f 51/97/40 35/98/40 52/99/40 
f 52/99/41 38/100/41 73/101/41 
f 73/101/42 38/100/42 2/102/42 31/103/42 
f 52/99/43 35/98/43 38/100/43 
f 51/97/44 59/96/44 35/98/44 
f 67/95/45 58/94/45 59/96/45 
f 66/93/46 34/92/46 58/94/46 
f 31/103/47 2/102/47 1/104/47 32/105/47 
f 24/106/48 33/107/48 68/108/48 25/109/48 
f 25/109/49 68/108/49 64/110/49 
f 64/110/50 69/111/50 65/112/50 
f 65/112/51 70/113/51 49/114/51 
f 49/114/52 71/115/52 50/116/52 
f 30/117/53 72/118/53 32/119/53 1/120/53 
f 68/108/54 69/111/54 64/110/54 
f 70/113/55 71/115/55 49/114/55 
f 71/115/56 72/118/56 30/117/56 
f 71/115/57 30/117/57 50/116/57 
f 69/111/58 70/113/58 65/112/58 
# 61 polygons - 19 triangles

